# xmcd
#
# Track frame offsets: 
#        150
#        25345
#        59317
#        62381
#        93654
#        99801
#        117551
#        185170
#
# Disc length: 2928 seconds
#
# Revision: 0
# Processed by: cddbd v1.5.2PL0 Copyright (c) Steve Scherf et al.
# Submitted via: ExactAudioCopy v1.3
#
DISCID=680b6e08
DTITLE=Out of Favor Boys - 7.18.9
DYEAR=2010
DGENRE=Blues
TTITLE0=Leaving You Behind (Live)
TTITLE1=Back Door Slam (Live)
TTITLE2=Broadside Shout Out (Live)
TTITLE3=Things I've Never Known (Live)
TTITLE4=Introducing Chuck Norris (Live)
TTITLE5=Devil and Al Green (Live)
TTITLE6=Love Rears Its Ugly Head (Live)
TTITLE7=Nasty Habits (Live)
EXTD=
EXTT0=
EXTT1=
EXTT2=
EXTT3=
EXTT4=
EXTT5=
EXTT6=
EXTT7=
PLAYORDER=
